<svg xmlns="http://www.w3.org/2000/svg" viewBox="0 0 512 512" fill="none">
  <defs>
    <linearGradient id="bgGrad" x1="0%" y1="0%" x2="100%" y2="100%">
      <stop offset="0%" style="stop-color:#6366f1"/>
      <stop offset="100%" style="stop-color:#8b5cf6"/>
    </linearGradient>
    <linearGradient id="clipGrad" x1="0%" y1="0%" x2="100%" y2="100%">
      <stop offset="0%" style="stop-color:#ffffff"/>
      <stop offset="100%" style="stop-color:#e0e7ff"/>
    </linearGradient>
  </defs>
  <!-- Background rounded square -->
  <rect x="16" y="16" width="480" height="480" rx="96" fill="url(#bgGrad)"/>
  <!-- Clipboard body -->
  <rect x="120" y="130" width="272" height="310" rx="24" fill="url(#clipGrad)"/>
  <!-- Clipboard clip -->
  <rect x="196" y="100" width="120" height="56" rx="14" fill="#4f46e5"/>
  <rect x="220" y="88" width="72" height="36" rx="10" fill="#6366f1"/>
  <!-- Check lines (attendance rows) -->
  <rect x="160" y="200" width="120" height="12" rx="6" fill="#c7d2fe" opacity="0.8"/>
  <rect x="160" y="240" width="120" height="12" rx="6" fill="#c7d2fe" opacity="0.8"/>
  <rect x="160" y="280" width="120" height="12" rx="6" fill="#c7d2fe" opacity="0.8"/>
  <rect x="160" y="320" width="120" height="12" rx="6" fill="#c7d2fe" opacity="0.6"/>
  <rect x="160" y="360" width="120" height="12" rx="6" fill="#c7d2fe" opacity="0.4"/>
  <!-- Checkmarks -->
  <path d="M320 196 L332 210 L352 186" stroke="#22c55e" stroke-width="10" stroke-linecap="round" stroke-linejoin="round" fill="none"/>
  <path d="M320 236 L332 250 L352 226" stroke="#22c55e" stroke-width="10" stroke-linecap="round" stroke-linejoin="round" fill="none"/>
  <path d="M320 276 L332 290 L352 266" stroke="#22c55e" stroke-width="10" stroke-linecap="round" stroke-linejoin="round" fill="none"/>
  <!-- X marks for absent -->
  <path d="M324 316 L348 340 M348 316 L324 340" stroke="#ef4444" stroke-width="8" stroke-linecap="round" fill="none"/>
  <path d="M324 356 L348 380 M348 356 L324 380" stroke="#ef4444" stroke-width="8" stroke-linecap="round" fill="none" opacity="0.6"/>
</svg>
